<svg width="24" height="25" viewBox="0 0 24 25" fill="none" xmlns="http://www.w3.org/2000/svg">
<path d="M10.5808 17.2309L17.3038 10.5079L16.25 9.45417L10.5808 15.1234L7.73075 12.2734L6.677 13.3272L10.5808 17.2309ZM12.0017 22.4772C10.6877 22.4772 9.45267 22.2278 8.2965 21.7292C7.14033 21.2305 6.13467 20.5538 5.2795 19.6989C4.42433 18.8441 3.74725 17.8388 3.24825 16.6832C2.74942 15.5275 2.5 14.2928 2.5 12.9789C2.5 11.6649 2.74933 10.4298 3.248 9.27367C3.74667 8.11751 4.42342 7.11184 5.27825 6.25667C6.13308 5.40151 7.13833 4.72442 8.294 4.22542C9.44967 3.72659 10.6844 3.47717 11.9983 3.47717C13.3123 3.47717 14.5473 3.72651 15.7035 4.22517C16.8597 4.72384 17.8653 5.40059 18.7205 6.25542C19.5757 7.11026 20.2528 8.11551 20.7518 9.27117C21.2506 10.4268 21.5 11.6616 21.5 12.9754C21.5 14.2894 21.2507 15.5245 20.752 16.6807C20.2533 17.8368 19.5766 18.8425 18.7218 19.6977C17.8669 20.5528 16.8617 21.2299 15.706 21.7289C14.5503 22.2278 13.3156 22.4772 12.0017 22.4772Z" fill="#FFC107"/>
</svg>
