<svg width="44" height="64" viewBox="0 0 44 64" fill="none" xmlns="http://www.w3.org/2000/svg">
<path d="M7.14 59L6.252 55.988H5.076V59H3.708V50.744H6.372C6.948 50.744 7.38 50.844 7.668 51.044C7.964 51.244 8.16 51.528 8.256 51.896C8.36 52.264 8.412 52.752 8.412 53.36C8.412 53.952 8.352 54.444 8.232 54.836C8.12 55.228 7.888 55.516 7.536 55.7L8.58 59H7.14ZM6.048 54.752C6.352 54.752 6.572 54.716 6.708 54.644C6.844 54.564 6.932 54.432 6.972 54.248C7.02 54.056 7.044 53.76 7.044 53.36C7.044 52.96 7.02 52.668 6.972 52.484C6.932 52.3 6.844 52.172 6.708 52.1C6.572 52.02 6.352 51.98 6.048 51.98H5.076V54.752H6.048ZM13.4908 56.384H10.6468C10.6468 56.904 10.6708 57.268 10.7188 57.476C10.7668 57.676 10.8708 57.812 11.0308 57.884C11.1908 57.948 11.4708 57.98 11.8708 57.98C12.2548 57.98 12.7468 57.948 13.3468 57.884V58.904C13.1468 58.96 12.8788 59.004 12.5428 59.036C12.2148 59.076 11.8948 59.096 11.5828 59.096C10.9108 59.096 10.4148 58.996 10.0948 58.796C9.78281 58.588 9.57881 58.276 9.48281 57.86C9.39481 57.436 9.35081 56.8 9.35081 55.952C9.35081 55.112 9.39481 54.48 9.48281 54.056C9.57081 53.632 9.76681 53.316 10.0708 53.108C10.3748 52.892 10.8508 52.784 11.4988 52.784C12.1388 52.784 12.5948 52.888 12.8668 53.096C13.1468 53.296 13.3188 53.6 13.3828 54.008C13.4548 54.408 13.4908 55.052 13.4908 55.94V56.384ZM11.4748 53.9C11.2268 53.9 11.0468 53.936 10.9348 54.008C10.8228 54.08 10.7468 54.216 10.7068 54.416C10.6748 54.616 10.6548 54.952 10.6468 55.424H12.2548V55.412C12.2548 54.948 12.2348 54.612 12.1948 54.404C12.1548 54.196 12.0828 54.06 11.9788 53.996C11.8748 53.932 11.7068 53.9 11.4748 53.9ZM16.0445 59.096C15.6285 59.096 15.3045 59.008 15.0725 58.832C14.8485 58.648 14.6885 58.332 14.5925 57.884C14.4965 57.436 14.4485 56.796 14.4485 55.964C14.4485 55.14 14.4925 54.504 14.5805 54.056C14.6765 53.6 14.8365 53.276 15.0605 53.084C15.2845 52.884 15.6045 52.784 16.0205 52.784C16.6845 52.784 17.1165 53.036 17.3165 53.54H17.3885V50.084H18.6845V59H17.4845L17.4365 58.244H17.3525C17.1845 58.812 16.7485 59.096 16.0445 59.096ZM16.5845 57.896C16.7845 57.896 16.9365 57.864 17.0405 57.8C17.1445 57.728 17.2245 57.608 17.2805 57.44C17.3525 57.184 17.3885 56.684 17.3885 55.94C17.3885 55.324 17.3685 54.896 17.3285 54.656C17.2885 54.4 17.2125 54.224 17.1005 54.128C16.9885 54.032 16.8165 53.984 16.5845 53.984C16.3125 53.984 16.1205 54.024 16.0085 54.104C15.9045 54.176 15.8325 54.34 15.7925 54.596C15.7605 54.852 15.7445 55.3 15.7445 55.94C15.7445 56.58 15.7605 57.028 15.7925 57.284C15.8325 57.54 15.9045 57.708 16.0085 57.788C16.1205 57.86 16.3125 57.896 16.5845 57.896ZM23.9322 56.384H21.0882C21.0882 56.904 21.1122 57.268 21.1602 57.476C21.2082 57.676 21.3122 57.812 21.4722 57.884C21.6322 57.948 21.9122 57.98 22.3122 57.98C22.6962 57.98 23.1882 57.948 23.7882 57.884V58.904C23.5882 58.96 23.3202 59.004 22.9842 59.036C22.6562 59.076 22.3362 59.096 22.0242 59.096C21.3522 59.096 20.8562 58.996 20.5362 58.796C20.2242 58.588 20.0202 58.276 19.9242 57.86C19.8362 57.436 19.7922 56.8 19.7922 55.952C19.7922 55.112 19.8362 54.48 19.9242 54.056C20.0122 53.632 20.2082 53.316 20.5122 53.108C20.8162 52.892 21.2922 52.784 21.9402 52.784C22.5802 52.784 23.0362 52.888 23.3082 53.096C23.5882 53.296 23.7602 53.6 23.8242 54.008C23.8962 54.408 23.9322 55.052 23.9322 55.94V56.384ZM21.9162 53.9C21.6682 53.9 21.4882 53.936 21.3762 54.008C21.2642 54.08 21.1882 54.216 21.1482 54.416C21.1162 54.616 21.0962 54.952 21.0882 55.424H22.6962V55.412C22.6962 54.948 22.6762 54.612 22.6362 54.404C22.5962 54.196 22.5242 54.06 22.4202 53.996C22.3162 53.932 22.1482 53.9 21.9162 53.9ZM29.0299 56.384H26.1859C26.1859 56.904 26.2099 57.268 26.2579 57.476C26.3059 57.676 26.4099 57.812 26.5699 57.884C26.7299 57.948 27.0099 57.98 27.4099 57.98C27.7939 57.98 28.2859 57.948 28.8859 57.884V58.904C28.6859 58.96 28.4179 59.004 28.0819 59.036C27.7539 59.076 27.4339 59.096 27.1219 59.096C26.4499 59.096 25.9539 58.996 25.6339 58.796C25.3219 58.588 25.1179 58.276 25.0219 57.86C24.9339 57.436 24.8899 56.8 24.8899 55.952C24.8899 55.112 24.9339 54.48 25.0219 54.056C25.1099 53.632 25.3059 53.316 25.6099 53.108C25.9139 52.892 26.3899 52.784 27.0379 52.784C27.6779 52.784 28.1339 52.888 28.4059 53.096C28.6859 53.296 28.8579 53.6 28.9219 54.008C28.9939 54.408 29.0299 55.052 29.0299 55.94V56.384ZM27.0139 53.9C26.7659 53.9 26.5859 53.936 26.4739 54.008C26.3619 54.08 26.2859 54.216 26.2459 54.416C26.2139 54.616 26.1939 54.952 26.1859 55.424H27.7939V55.412C27.7939 54.948 27.7739 54.612 27.7339 54.404C27.6939 54.196 27.6219 54.06 27.5179 53.996C27.4139 53.932 27.2459 53.9 27.0139 53.9ZM35.6635 55.628C35.6635 55.084 35.6475 54.708 35.6155 54.5C35.5915 54.284 35.5355 54.148 35.4475 54.092C35.3595 54.028 35.1995 53.996 34.9675 53.996C34.7275 53.996 34.5515 54.048 34.4395 54.152C34.3355 54.256 34.2675 54.428 34.2355 54.668C34.2115 54.9 34.1995 55.28 34.1995 55.808V59H32.9035V55.628C32.9035 55.084 32.8875 54.708 32.8555 54.5C32.8315 54.284 32.7755 54.148 32.6875 54.092C32.5995 54.028 32.4395 53.996 32.2075 53.996C31.9675 53.996 31.7955 54.048 31.6915 54.152C31.5875 54.256 31.5195 54.428 31.4875 54.668C31.4635 54.9 31.4515 55.28 31.4515 55.808V59H30.1555V52.88H31.3435L31.3915 53.648H31.4635C31.5755 53.344 31.7395 53.124 31.9555 52.988C32.1715 52.852 32.4635 52.784 32.8315 52.784C33.2235 52.784 33.5155 52.852 33.7075 52.988C33.9075 53.124 34.0435 53.344 34.1155 53.648H34.1875C34.2915 53.344 34.4555 53.124 34.6795 52.988C34.9035 52.852 35.2035 52.784 35.5795 52.784C35.9555 52.784 36.2395 52.86 36.4315 53.012C36.6315 53.164 36.7675 53.396 36.8395 53.708C36.9195 54.012 36.9595 54.432 36.9595 54.968V59H35.6635V55.628Z" fill="white"/>
<g filter="url(#filter0_d_3525_10372)">
<path d="M41.2 14.4C40.24 11.04 38.4 8.08 36 5.68C32.4 2.16 27.44 0 22 0C16.56 0 11.6 2.16 8 5.68C4.32 9.36 2 14.4 2 20C2 25.44 4.16 30.32 7.68 33.92C11.28 37.68 16.4 40 22 40C27.6 40 32.72 37.68 36.32 33.92C38.56 31.6 40.24 28.8 41.2 25.6C41.76 23.84 42 21.92 42 20C42 18.08 41.76 16.16 41.2 14.4ZM19.04 22.32C19.04 22 19.28 21.84 19.52 21.84H26.56C26.8 21.84 27.04 22.08 27.04 22.32V23.36C27.04 23.6 26.8 23.84 26.56 23.84H19.52C19.2 23.84 19.04 23.6 19.04 23.36V22.32ZM7.2 17.12C7.2 15.6 8.4 14.32 9.92 14.24V13.2C9.92 12.96 10.16 12.72 10.4 12.72H11.44C11.76 12.72 11.92 12.96 11.92 13.2V14.24C12.64 14.24 13.36 14.48 13.92 14.96C14.16 15.12 14.16 15.52 13.92 15.76L13.2 16.48C13.04 16.64 12.8 16.64 12.56 16.56C12.32 16.4 12.08 16.32 11.76 16.32H10C9.6 16.32 9.28 16.72 9.28 17.12C9.28 17.52 9.52 17.84 9.84 17.92L12.64 18.8C13.84 19.12 14.64 20.32 14.64 21.52C14.64 23.04 13.44 24.32 11.92 24.32V25.36C11.92 25.6 11.68 25.84 11.44 25.84H10.4C10.16 25.84 9.92 25.6 9.92 25.36V24.32C9.2 24.32 8.48 24 7.92 23.6C7.68 23.44 7.68 23.04 7.92 22.8L8.64 22.08C8.8 21.92 9.04 21.92 9.28 22C9.52 22.16 9.84 22.24 10.08 22.24H11.84C12.24 22.24 12.56 21.84 12.56 21.44C12.56 21.04 12.32 20.72 12 20.64L9.2 19.84C8.08 19.52 7.2 18.4 7.2 17.12ZM37.2 23.36C37.2 23.6 36.96 23.84 36.72 23.84H31.6C31.28 23.84 31.12 23.6 31.12 23.36V22.32C31.12 22 31.36 21.84 31.6 21.84H36.64C36.88 21.84 37.12 22.08 37.12 22.32V23.36H37.2ZM37.2 17.28C37.2 17.52 36.96 17.76 36.72 17.76H19.52C19.2 17.76 19.04 17.52 19.04 17.28V16.24C19.04 15.92 19.28 15.76 19.52 15.76H36.64C36.88 15.76 37.12 16 37.12 16.24V17.28H37.2Z" fill="white"/>
</g>
<defs>
<filter id="filter0_d_3525_10372" x="0" y="0" width="44" height="44" filterUnits="userSpaceOnUse" color-interpolation-filters="sRGB">
<feFlood flood-opacity="0" result="BackgroundImageFix"/>
<feColorMatrix in="SourceAlpha" type="matrix" values="0 0 0 0 0 0 0 0 0 0 0 0 0 0 0 0 0 0 127 0" result="hardAlpha"/>
<feOffset dy="2"/>
<feGaussianBlur stdDeviation="1"/>
<feColorMatrix type="matrix" values="0 0 0 0 0 0 0 0 0 0 0 0 0 0 0 0 0 0 0.2 0"/>
<feBlend mode="normal" in2="BackgroundImageFix" result="effect1_dropShadow_3525_10372"/>
<feBlend mode="normal" in="SourceGraphic" in2="effect1_dropShadow_3525_10372" result="shape"/>
</filter>
</defs>
</svg>
